<svg xmlns="http://www.w3.org/2000/svg" xmlns:xlink="http://www.w3.org/1999/xlink" width="500" zoomAndPan="magnify" viewBox="0 0 375 374.999991" height="500" preserveAspectRatio="xMidYMid meet" version="1.0"><defs><g/></defs><g fill="#f4c34c" fill-opacity="1"><g transform="translate(14.47266, 312.749979)"><g><path d="M 119.335938 -46.792969 L 48.046875 -46.792969 L 48.046875 -103.320312 L 146.65625 -103.320312 C 148.539062 -103.320312 150.109375 -104.890625 150.109375 -106.144531 L 150.109375 -146.027344 C 150.109375 -147.597656 148.539062 -148.855469 146.65625 -148.855469 L 48.046875 -148.855469 L 48.046875 -205.695312 L 119.335938 -205.695312 L 119.335938 -251.230469 L 3.453125 -251.230469 C 1.570312 -251.230469 0 -249.660156 0 -248.40625 L 0 -2.828125 C 0 -1.570312 1.570312 0 3.453125 0 L 119.335938 0 Z M 119.335938 -46.792969 "/></g></g></g><g fill="#fb7da0" fill-opacity="1"><g transform="translate(172.113278, 312.749979)"><g><path d="M 130.953125 -204.441406 L 97.980469 -112.425781 L 48.992188 -249.347656 C 48.675781 -250.605469 47.421875 -251.230469 45.851562 -251.230469 L 3.140625 -251.230469 C 0.628906 -251.230469 -0.628906 -249.347656 0.3125 -247.464844 L 94.839844 -1.570312 C 96.097656 0.628906 99.863281 0.628906 100.808594 -1.570312 L 179.316406 -204.441406 Z M 130.953125 -204.441406 "/></g></g></g></svg>